# xmcd CD database file
#
# Track frame offsets:
#	150
#	18268
#	31540
#	49038
#	60908
#	89928
#	110720
#	125010
#	139375
#	158145
#	177123
#	196215
#	217370
#	243853
#
# Disc length: 3541 seconds
#
# Revision: 0
# Processed by: cddbd v1.5.2PL0 Copyright (c) Steve Scherf et al.
# Submitted via: Feurio! 1.63 - http://www.feurio.com
#
DISCID=c50dd30e
DTITLE=Various Artist - The Best Of Nederblues - Volume 1
DYEAR=1900
DGENRE=blues
TTITLE0=Livin' Blues - Wang Dang Doodle - L. B. Boogie
TTITLE1=Rob Hoeke - Margio
TTITLE2=Oscar Benton - Bensonhurst Blues
TTITLE3=Bintangs - Ridin' On The L and N
TTITLE4=Cuby and The Blizzards - Something Inside Me
TTITLE5=Herman Brood - Showbizz Blues
TTITLE6=Kaz Lux and John Schuursma - Sinner's Prayer
TTITLE7=Flavium - Honey Bee
TTITLE8=Artie Kraaijeveld - Sweet Louisa
TTITLE9=Shakey Sam - Little Red Rooster
TTITLE10=John The Revelator - The Journey
TTITLE11=Eelco Gelling and Blues Connection - Distant Smile
TTITLE12=Sketch - Further Up On The Road
TTITLE13=Blue Horizon - Shoulder To Cry
EXTD=
EXTT0=
EXTT1=
EXTT2=
EXTT3=
EXTT4=
EXTT5=
EXTT6=
EXTT7=
EXTT8=
EXTT9=
EXTT10=
EXTT11=
EXTT12=
EXTT13=
PLAYORDER=
